<svg width="74" height="22" fill="none" xmlns="http://www.w3.org/2000/svg"><path fill-rule="evenodd" clip-rule="evenodd" d="M25.48 0c1.5 0 1.39 1.2 1.37 1.32v.01l-1.37 4.54h1.4c.17 0 .3-.74 1.74-.7 1.39.02 2.06 1 1.64 2.49l-.01.05c-.46 1.57.22 1.78 1.25 1.78 1.04 0 1.24-.52 2.59-.5 2.16.04 1.23 1.86 1.05 2.3l-.05.12c-.15.37-.35.9-1.03 2.52l-.1.22c-1.47 3.43-1.34 5.48.14 5.48.7 0 1.49-.8 2.11-1.6-.06-.98 0-2.13.16-3.47.54-4.47 3.83-8 6.3-8 2.48 0 3.5 2.24 3.5 2.24.93-2.5 3.27-2.61 4.06-1.72.44.48.52 1.07-.06 1.99-.37.58-2.37 5.85-2.56 8.73v.18c-.04 1 .22 1.49.61 1.63.6.05 1.3-.82 1.72-1.63.91-1.78 2.46-8.37 3.02-9.71.29-.69 1.44-1.31 1.95-1.58.3-.16 1.25-.26 1.71.5l.02.02c.47.77 2.73 3.9 2.73 3.9l.13-.1c.3-.17 1.08-.63 2.14-1.17-4.22-2.4-3.7-2.39 1.8-4.2l.09-.39c1.42-6.02 1.28-5.85 5.33-.6l.92-.1c5.5-.7 5.28-.53 1.35 4.45 2.7 5.85 2.9 5.64-3.38 3.53l-.41.34c-4.31 3.54-4.47 3.79-4.3-.93l-.06.03c-.96.45-2.15 1.26-2.15 1.26l.08.14c.3.56 1.5 2.78 1.62 3.77.34 3-3.05 4.83-5.04 4.83-5.07 0-4.57-3.6-4.04-5.05.26-.7 1.43-2.2 3.15-3.78-.24-.56-1.66-2.62-1.83-2.62-.07 0-1.82 5.3-2.77 7.54-1.7 4-4.05 3.91-5 3.91-2.36-.02-2.51-2.87-2.51-2.87l-.02.03c-.18.3-1.73 2.84-4 2.84-2.06 0-3.24-.67-3.83-1.98l-.04.05c-.74.86-2.01 1.93-3.74 1.93-2.9 0-3.13-2.8-3.25-4.16-.11-1.36.89-4.55 1.03-5l.01-.03c.15-.43.45-.8-.52-.8-1 0-1.71 3.99-2.6 5.93l-.12.24c-.91 1.97-1.9 3.82-5.2 3.82-2.25 0-3.13-2.2-3.25-4.02a7.62 7.62 0 0 1-5.85 4.04c-1 .1-3.75-.42-5.06-3.08-.97 1.66-2.45 3.06-4.79 3.06-2.83 0-3.5-3.52-3.19-5.33l.03-.16c.22-1.19 1.13-5.77 1.8-8.3L2 7.84C3.1 3.7 4.18 0 6.53 0c1.58 0 1.38 1.33 1.38 1.33l-.11.35c-.65 2-3.9 12.15-4.25 14.77l-.02.1c-.21 1.7-.17 3.06.72 3.06 1.02.01 2.04-1 3.1-3.93 0-.37.02-.75.05-1.16.44-5.05 4.87-7.77 6.67-7.94 1.37-.13 2.71.31 3.4 1.49.6-1.9 4.22-2.2 4.22-2.2V5.8c.1-.62.96-5.8 3.79-5.8Zm-7.55 9.48v-.05h.01c.3.05.73.04 1.37.04h1.24l-1.19 5.08-.04.07c-.32.6-2.73 4.84-5.44 5.1-2.36.23-2.51-2.37-2.52-2.58v-.02s7.23-1.84 6.57-7.64Zm22.36 4.36c.95-3.15 2.32-4.67 3.3-4.67.96 0 1.8 1.1 1.72 2.17 0 0-.85 3.67-.86 4.5-.03.84-1.71 3.84-3.12 3.84-1.4 0-1.99-2.69-1.04-5.84Zm17.35 1 .07-.05s1.12 1.16 1.44 2.7c.37 1.72-1.04 2.14-2.15 2.14-1.1 0-1.7-.74-1.75-1.64-.05-.92 1.99-2.78 2.4-3.14ZM24.3 9.49H26.36c.08.01 1.36.2.9 2.79-.12.65-.16 1.2-.82 3.07l-.03.09c-1.11 3.1-2.1 4.2-3.15 4.2-.92 0-.99-1.44-.75-3.2l.01-.05a73.01 73.01 0 0 1 1.67-6.54l.1-.36ZM14.2 8.82c1.53-.15.8 2.33.16 3.42a10.66 10.66 0 0 1-3.27 3.22c-.04-5.28 2.12-6.55 3.11-6.64Zm51.75-4.7 1.33 1.82.02.02c.65.87 1.2.62 3.4.3l.13-.01c-2.39 2.79-2.39 1.99-.62 5.14-3.42-1.32-2.57-1.52-5.26.98.17-3.57.66-2.78-2.62-4.4 2.71-.75 2.88-.65 3.14-1.74l.48-2.1Z" fill="url(#a)"/><defs><linearGradient id="a" x1="37" y1="0" x2="37" y2="22" gradientUnits="userSpaceOnUse"><stop stop-color="#EBEF00"/><stop offset="1" stop-color="#C0C400"/></linearGradient></defs></svg>